<mxfile host="app.diagrams.net" agent="Mozilla/5.0 (Windows NT 10.0; Win64; x64) AppleWebKit/537.36 (KHTML, like Gecko) Chrome/131.0.0.0 Safari/537.36" version="25.0.1">
  <diagram name="Page-1" id="6nwoPm9bjf4U3ryjuL-o">
    <mxGraphModel dx="1434" dy="806" grid="1" gridSize="10" guides="1" tooltips="1" connect="1" arrows="1" fold="1" page="1" pageScale="1" pageWidth="1654" pageHeight="2336" math="0" shadow="0">
      <root>
        <mxCell id="0" />
        <mxCell id="1" parent="0" />
        <mxCell id="gi1o_FaKeHN2E4BRPbJ4-5" style="edgeStyle=orthogonalEdgeStyle;rounded=0;orthogonalLoop=1;jettySize=auto;html=1;exitX=0.75;exitY=1;exitDx=0;exitDy=0;entryX=0.5;entryY=0;entryDx=0;entryDy=0;fillColor=#d5e8d4;strokeColor=#82b366;" edge="1" parent="1" source="gi1o_FaKeHN2E4BRPbJ4-1" target="gi1o_FaKeHN2E4BRPbJ4-3">
          <mxGeometry relative="1" as="geometry" />
        </mxCell>
        <mxCell id="gi1o_FaKeHN2E4BRPbJ4-6" style="edgeStyle=orthogonalEdgeStyle;rounded=0;orthogonalLoop=1;jettySize=auto;html=1;exitX=0.5;exitY=1;exitDx=0;exitDy=0;entryX=0.5;entryY=0;entryDx=0;entryDy=0;fillColor=#d5e8d4;strokeColor=#82b366;" edge="1" parent="1" source="gi1o_FaKeHN2E4BRPbJ4-1" target="gi1o_FaKeHN2E4BRPbJ4-2">
          <mxGeometry relative="1" as="geometry" />
        </mxCell>
        <mxCell id="gi1o_FaKeHN2E4BRPbJ4-7" style="edgeStyle=orthogonalEdgeStyle;rounded=0;orthogonalLoop=1;jettySize=auto;html=1;exitX=0.25;exitY=1;exitDx=0;exitDy=0;entryX=0.5;entryY=0;entryDx=0;entryDy=0;fillColor=#d5e8d4;strokeColor=#82b366;" edge="1" parent="1" source="gi1o_FaKeHN2E4BRPbJ4-1" target="gi1o_FaKeHN2E4BRPbJ4-4">
          <mxGeometry relative="1" as="geometry" />
        </mxCell>
        <mxCell id="gi1o_FaKeHN2E4BRPbJ4-1" value="Musician" style="whiteSpace=wrap;html=1;align=center;fillColor=#d5e8d4;strokeColor=#82b366;" vertex="1" parent="1">
          <mxGeometry x="970" y="690" width="100" height="40" as="geometry" />
        </mxCell>
        <mxCell id="gi1o_FaKeHN2E4BRPbJ4-2" value="ID" style="ellipse;whiteSpace=wrap;html=1;align=center;fontStyle=4;fillColor=#d5e8d4;strokeColor=#82b366;" vertex="1" parent="1">
          <mxGeometry x="970" y="810" width="100" height="40" as="geometry" />
        </mxCell>
        <mxCell id="gi1o_FaKeHN2E4BRPbJ4-3" value="Address" style="ellipse;whiteSpace=wrap;html=1;align=center;fillColor=#d5e8d4;strokeColor=#82b366;" vertex="1" parent="1">
          <mxGeometry x="1130" y="810" width="100" height="40" as="geometry" />
        </mxCell>
        <mxCell id="gi1o_FaKeHN2E4BRPbJ4-4" value="Name" style="ellipse;whiteSpace=wrap;html=1;align=center;fillColor=#d5e8d4;strokeColor=#82b366;" vertex="1" parent="1">
          <mxGeometry x="810" y="810" width="100" height="40" as="geometry" />
        </mxCell>
        <mxCell id="gi1o_FaKeHN2E4BRPbJ4-15" style="edgeStyle=orthogonalEdgeStyle;rounded=0;orthogonalLoop=1;jettySize=auto;html=1;exitX=0.75;exitY=1;exitDx=0;exitDy=0;entryX=0.5;entryY=0;entryDx=0;entryDy=0;fillColor=#f8cecc;strokeColor=#b85450;" edge="1" parent="1" source="gi1o_FaKeHN2E4BRPbJ4-12" target="gi1o_FaKeHN2E4BRPbJ4-13">
          <mxGeometry relative="1" as="geometry" />
        </mxCell>
        <mxCell id="gi1o_FaKeHN2E4BRPbJ4-12" value="Instrument" style="whiteSpace=wrap;html=1;align=center;fillColor=#f8cecc;strokeColor=#b85450;" vertex="1" parent="1">
          <mxGeometry x="520" y="690" width="100" height="40" as="geometry" />
        </mxCell>
        <mxCell id="gi1o_FaKeHN2E4BRPbJ4-13" value="&lt;u&gt;Name&lt;/u&gt;" style="ellipse;whiteSpace=wrap;html=1;align=center;fillColor=#f8cecc;strokeColor=#b85450;" vertex="1" parent="1">
          <mxGeometry x="600" y="810" width="100" height="40" as="geometry" />
        </mxCell>
        <mxCell id="gi1o_FaKeHN2E4BRPbJ4-14" value="Key" style="ellipse;whiteSpace=wrap;html=1;align=center;fillColor=#f8cecc;strokeColor=#b85450;" vertex="1" parent="1">
          <mxGeometry x="430" y="810" width="100" height="40" as="geometry" />
        </mxCell>
        <mxCell id="gi1o_FaKeHN2E4BRPbJ4-16" style="edgeStyle=orthogonalEdgeStyle;rounded=0;orthogonalLoop=1;jettySize=auto;html=1;exitX=0.25;exitY=1;exitDx=0;exitDy=0;entryX=0.501;entryY=-0.082;entryDx=0;entryDy=0;entryPerimeter=0;fillColor=#f8cecc;strokeColor=#b85450;" edge="1" parent="1" source="gi1o_FaKeHN2E4BRPbJ4-12" target="gi1o_FaKeHN2E4BRPbJ4-14">
          <mxGeometry relative="1" as="geometry" />
        </mxCell>
        <mxCell id="gi1o_FaKeHN2E4BRPbJ4-21" style="edgeStyle=orthogonalEdgeStyle;rounded=0;orthogonalLoop=1;jettySize=auto;html=1;exitX=0.75;exitY=1;exitDx=0;exitDy=0;entryX=0.5;entryY=0;entryDx=0;entryDy=0;fillColor=#fff2cc;strokeColor=#d6b656;" edge="1" parent="1" source="gi1o_FaKeHN2E4BRPbJ4-17" target="gi1o_FaKeHN2E4BRPbJ4-18">
          <mxGeometry relative="1" as="geometry" />
        </mxCell>
        <mxCell id="gi1o_FaKeHN2E4BRPbJ4-22" style="edgeStyle=orthogonalEdgeStyle;rounded=0;orthogonalLoop=1;jettySize=auto;html=1;exitX=0.5;exitY=1;exitDx=0;exitDy=0;entryX=0.5;entryY=0;entryDx=0;entryDy=0;fillColor=#fff2cc;strokeColor=#d6b656;" edge="1" parent="1" source="gi1o_FaKeHN2E4BRPbJ4-17" target="gi1o_FaKeHN2E4BRPbJ4-19">
          <mxGeometry relative="1" as="geometry" />
        </mxCell>
        <mxCell id="gi1o_FaKeHN2E4BRPbJ4-23" style="edgeStyle=orthogonalEdgeStyle;rounded=0;orthogonalLoop=1;jettySize=auto;html=1;exitX=0.25;exitY=1;exitDx=0;exitDy=0;entryX=0.5;entryY=0;entryDx=0;entryDy=0;fillColor=#fff2cc;strokeColor=#d6b656;" edge="1" parent="1" source="gi1o_FaKeHN2E4BRPbJ4-17" target="gi1o_FaKeHN2E4BRPbJ4-20">
          <mxGeometry relative="1" as="geometry" />
        </mxCell>
        <mxCell id="gi1o_FaKeHN2E4BRPbJ4-17" value="Album" style="whiteSpace=wrap;html=1;align=center;fillColor=#fff2cc;strokeColor=#d6b656;" vertex="1" parent="1">
          <mxGeometry x="970" y="240" width="100" height="40" as="geometry" />
        </mxCell>
        <mxCell id="gi1o_FaKeHN2E4BRPbJ4-18" value="Identifier" style="ellipse;whiteSpace=wrap;html=1;align=center;fillColor=#fff2cc;strokeColor=#d6b656;" vertex="1" parent="1">
          <mxGeometry x="1130" y="360" width="100" height="40" as="geometry" />
        </mxCell>
        <mxCell id="gi1o_FaKeHN2E4BRPbJ4-19" value="Copy Date" style="ellipse;whiteSpace=wrap;html=1;align=center;fillColor=#fff2cc;strokeColor=#d6b656;" vertex="1" parent="1">
          <mxGeometry x="970" y="360" width="100" height="40" as="geometry" />
        </mxCell>
        <mxCell id="gi1o_FaKeHN2E4BRPbJ4-20" value="&lt;u&gt;Title&lt;/u&gt;" style="ellipse;whiteSpace=wrap;html=1;align=center;fillColor=#fff2cc;strokeColor=#d6b656;" vertex="1" parent="1">
          <mxGeometry x="810" y="360" width="100" height="40" as="geometry" />
        </mxCell>
        <mxCell id="gi1o_FaKeHN2E4BRPbJ4-27" style="edgeStyle=orthogonalEdgeStyle;rounded=0;orthogonalLoop=1;jettySize=auto;html=1;exitX=0.75;exitY=1;exitDx=0;exitDy=0;entryX=0.5;entryY=0;entryDx=0;entryDy=0;fillColor=#e1d5e7;strokeColor=#9673a6;" edge="1" parent="1" source="gi1o_FaKeHN2E4BRPbJ4-24" target="gi1o_FaKeHN2E4BRPbJ4-25">
          <mxGeometry relative="1" as="geometry" />
        </mxCell>
        <mxCell id="gi1o_FaKeHN2E4BRPbJ4-28" style="edgeStyle=orthogonalEdgeStyle;rounded=0;orthogonalLoop=1;jettySize=auto;html=1;exitX=0.25;exitY=1;exitDx=0;exitDy=0;entryX=0.5;entryY=0;entryDx=0;entryDy=0;fillColor=#e1d5e7;strokeColor=#9673a6;" edge="1" parent="1" source="gi1o_FaKeHN2E4BRPbJ4-24" target="gi1o_FaKeHN2E4BRPbJ4-26">
          <mxGeometry relative="1" as="geometry" />
        </mxCell>
        <mxCell id="gi1o_FaKeHN2E4BRPbJ4-24" value="Song" style="rounded=0;arcSize=10;whiteSpace=wrap;html=1;align=center;fillColor=#e1d5e7;strokeColor=#9673a6;" vertex="1" parent="1">
          <mxGeometry x="520" y="240" width="100" height="40" as="geometry" />
        </mxCell>
        <mxCell id="gi1o_FaKeHN2E4BRPbJ4-25" value="Author" style="ellipse;whiteSpace=wrap;html=1;align=center;fillColor=#e1d5e7;strokeColor=#9673a6;" vertex="1" parent="1">
          <mxGeometry x="600" y="360" width="100" height="40" as="geometry" />
        </mxCell>
        <mxCell id="gi1o_FaKeHN2E4BRPbJ4-26" value="&lt;u&gt;Title&lt;/u&gt;" style="ellipse;whiteSpace=wrap;html=1;align=center;fillColor=#e1d5e7;strokeColor=#9673a6;" vertex="1" parent="1">
          <mxGeometry x="430" y="360" width="100" height="40" as="geometry" />
        </mxCell>
        <mxCell id="gi1o_FaKeHN2E4BRPbJ4-30" style="edgeStyle=orthogonalEdgeStyle;rounded=0;orthogonalLoop=1;jettySize=auto;html=1;exitX=1;exitY=0.5;exitDx=0;exitDy=0;" edge="1" parent="1" source="gi1o_FaKeHN2E4BRPbJ4-29" target="gi1o_FaKeHN2E4BRPbJ4-1">
          <mxGeometry relative="1" as="geometry" />
        </mxCell>
        <mxCell id="gi1o_FaKeHN2E4BRPbJ4-31" style="edgeStyle=orthogonalEdgeStyle;rounded=0;orthogonalLoop=1;jettySize=auto;html=1;exitX=0;exitY=0.5;exitDx=0;exitDy=0;entryX=1;entryY=0.5;entryDx=0;entryDy=0;" edge="1" parent="1" source="gi1o_FaKeHN2E4BRPbJ4-29" target="gi1o_FaKeHN2E4BRPbJ4-12">
          <mxGeometry relative="1" as="geometry" />
        </mxCell>
        <mxCell id="gi1o_FaKeHN2E4BRPbJ4-29" value="Play" style="shape=rhombus;perimeter=rhombusPerimeter;whiteSpace=wrap;html=1;align=center;fillColor=#d80073;fontColor=#ffffff;strokeColor=#A50040;" vertex="1" parent="1">
          <mxGeometry x="740" y="680" width="120" height="60" as="geometry" />
        </mxCell>
        <mxCell id="gi1o_FaKeHN2E4BRPbJ4-32" value="M" style="text;html=1;align=center;verticalAlign=middle;resizable=0;points=[];autosize=1;strokeColor=none;fillColor=none;" vertex="1" parent="1">
          <mxGeometry x="855" y="678" width="30" height="30" as="geometry" />
        </mxCell>
        <mxCell id="gi1o_FaKeHN2E4BRPbJ4-33" value="M" style="text;html=1;align=center;verticalAlign=middle;resizable=0;points=[];autosize=1;strokeColor=none;fillColor=none;" vertex="1" parent="1">
          <mxGeometry x="725" y="678" width="30" height="30" as="geometry" />
        </mxCell>
        <mxCell id="gi1o_FaKeHN2E4BRPbJ4-36" style="edgeStyle=orthogonalEdgeStyle;rounded=0;orthogonalLoop=1;jettySize=auto;html=1;exitX=0;exitY=0.5;exitDx=0;exitDy=0;shape=link;" edge="1" parent="1" source="gi1o_FaKeHN2E4BRPbJ4-34" target="gi1o_FaKeHN2E4BRPbJ4-24">
          <mxGeometry relative="1" as="geometry" />
        </mxCell>
        <mxCell id="gi1o_FaKeHN2E4BRPbJ4-37" style="edgeStyle=orthogonalEdgeStyle;rounded=0;orthogonalLoop=1;jettySize=auto;html=1;exitX=1;exitY=0.5;exitDx=0;exitDy=0;entryX=0;entryY=0.5;entryDx=0;entryDy=0;shape=link;" edge="1" parent="1" source="gi1o_FaKeHN2E4BRPbJ4-34" target="gi1o_FaKeHN2E4BRPbJ4-17">
          <mxGeometry relative="1" as="geometry" />
        </mxCell>
        <mxCell id="gi1o_FaKeHN2E4BRPbJ4-34" value="Have" style="shape=rhombus;perimeter=rhombusPerimeter;whiteSpace=wrap;html=1;align=center;fillColor=#d80073;fontColor=#ffffff;strokeColor=#A50040;" vertex="1" parent="1">
          <mxGeometry x="740" y="230" width="120" height="60" as="geometry" />
        </mxCell>
        <mxCell id="gi1o_FaKeHN2E4BRPbJ4-38" value="M" style="text;html=1;align=center;verticalAlign=middle;resizable=0;points=[];autosize=1;strokeColor=none;fillColor=none;" vertex="1" parent="1">
          <mxGeometry x="715" y="218" width="30" height="30" as="geometry" />
        </mxCell>
        <mxCell id="gi1o_FaKeHN2E4BRPbJ4-39" value="1" style="text;html=1;align=center;verticalAlign=middle;resizable=0;points=[];autosize=1;strokeColor=none;fillColor=none;" vertex="1" parent="1">
          <mxGeometry x="855" y="216" width="30" height="30" as="geometry" />
        </mxCell>
        <mxCell id="gi1o_FaKeHN2E4BRPbJ4-42" style="edgeStyle=orthogonalEdgeStyle;rounded=0;orthogonalLoop=1;jettySize=auto;html=1;exitX=0;exitY=0.5;exitDx=0;exitDy=0;entryX=0.5;entryY=1;entryDx=0;entryDy=0;shape=link;" edge="1" parent="1" source="gi1o_FaKeHN2E4BRPbJ4-40" target="gi1o_FaKeHN2E4BRPbJ4-24">
          <mxGeometry relative="1" as="geometry" />
        </mxCell>
        <mxCell id="gi1o_FaKeHN2E4BRPbJ4-43" style="edgeStyle=orthogonalEdgeStyle;rounded=0;orthogonalLoop=1;jettySize=auto;html=1;exitX=1;exitY=0.5;exitDx=0;exitDy=0;entryX=0.32;entryY=-0.075;entryDx=0;entryDy=0;entryPerimeter=0;" edge="1" parent="1" source="gi1o_FaKeHN2E4BRPbJ4-40" target="gi1o_FaKeHN2E4BRPbJ4-1">
          <mxGeometry relative="1" as="geometry" />
        </mxCell>
        <mxCell id="gi1o_FaKeHN2E4BRPbJ4-40" value="Perform" style="shape=rhombus;perimeter=rhombusPerimeter;whiteSpace=wrap;html=1;align=center;fillColor=#d80073;fontColor=#ffffff;strokeColor=#A50040;" vertex="1" parent="1">
          <mxGeometry x="740" y="480" width="120" height="60" as="geometry" />
        </mxCell>
        <mxCell id="gi1o_FaKeHN2E4BRPbJ4-44" value="M" style="text;html=1;align=center;verticalAlign=middle;resizable=0;points=[];autosize=1;strokeColor=none;fillColor=none;" vertex="1" parent="1">
          <mxGeometry x="715" y="478" width="30" height="30" as="geometry" />
        </mxCell>
        <mxCell id="gi1o_FaKeHN2E4BRPbJ4-45" value="M" style="text;html=1;align=center;verticalAlign=middle;resizable=0;points=[];autosize=1;strokeColor=none;fillColor=none;" vertex="1" parent="1">
          <mxGeometry x="865" y="478" width="30" height="30" as="geometry" />
        </mxCell>
        <mxCell id="gi1o_FaKeHN2E4BRPbJ4-48" style="edgeStyle=orthogonalEdgeStyle;rounded=0;orthogonalLoop=1;jettySize=auto;html=1;exitX=1;exitY=0.5;exitDx=0;exitDy=0;entryX=1;entryY=0.5;entryDx=0;entryDy=0;shape=link;" edge="1" parent="1" source="gi1o_FaKeHN2E4BRPbJ4-46" target="gi1o_FaKeHN2E4BRPbJ4-17">
          <mxGeometry relative="1" as="geometry" />
        </mxCell>
        <mxCell id="gi1o_FaKeHN2E4BRPbJ4-46" value="Produce" style="shape=rhombus;perimeter=rhombusPerimeter;whiteSpace=wrap;html=1;align=center;fillColor=#d80073;fontColor=#ffffff;strokeColor=#A50040;" vertex="1" parent="1">
          <mxGeometry x="1120" y="480" width="120" height="60" as="geometry" />
        </mxCell>
        <mxCell id="gi1o_FaKeHN2E4BRPbJ4-49" style="edgeStyle=orthogonalEdgeStyle;rounded=0;orthogonalLoop=1;jettySize=auto;html=1;exitX=0;exitY=0.5;exitDx=0;exitDy=0;entryX=0.69;entryY=-0.1;entryDx=0;entryDy=0;entryPerimeter=0;" edge="1" parent="1" source="gi1o_FaKeHN2E4BRPbJ4-46" target="gi1o_FaKeHN2E4BRPbJ4-1">
          <mxGeometry relative="1" as="geometry" />
        </mxCell>
        <mxCell id="gi1o_FaKeHN2E4BRPbJ4-50" value="1" style="text;html=1;align=center;verticalAlign=middle;resizable=0;points=[];autosize=1;strokeColor=none;fillColor=none;" vertex="1" parent="1">
          <mxGeometry x="1105" y="468" width="30" height="30" as="geometry" />
        </mxCell>
        <mxCell id="gi1o_FaKeHN2E4BRPbJ4-51" value="M" style="text;html=1;align=center;verticalAlign=middle;resizable=0;points=[];autosize=1;strokeColor=none;fillColor=none;" vertex="1" parent="1">
          <mxGeometry x="1215" y="468" width="30" height="30" as="geometry" />
        </mxCell>
      </root>
    </mxGraphModel>
  </diagram>
</mxfile>
